HIERARCHY
ROOT Hips
{
  OFFSET 13.6774 106.653 -34.4427
  CHANNELS 6 Xposition Yposition Zposition Zrotation Xrotation Yrotation
  JOINT ToSpine
  {
    OFFSET -2.69724 7.43032 -0.144315
    CHANNELS 3 Zrotation Xrotation Yrotation
    JOINT Spine
    {
      OFFSET -0.0310711 10.7595 1.96963
      CHANNELS 3 Zrotation Xrotation Yrotation
      JOINT Spine1
      {
        OFFSET 19.9056 3.91189 0.764692
        CHANNELS 3 Zrotation Xrotation Yrotation
        JOINT Neck
        {
          OFFSET 25.9749 7.03908 -0.130764
          CHANNELS 3 Zrotation Xrotation Yrotation
          JOINT Head
          {
            OFFSET 9.52751 0.295786 -0.907742
            CHANNELS 3 Zrotation Xrotation Yrotation
            End Site
            {
              OFFSET 16.4037 0.713936 2.7358
            }
          }
        }
        JOINT LeftShoulder
        {
          OFFSET 17.7449 4.33886 11.7777
          CHANNELS 3 Zrotation Xrotation Yrotation
          JOINT LeftArm
          {
            OFFSET 0.911315 1.27913 9.80584
            CHANNELS 3 Zrotation Xrotation Yrotation
            JOINT LeftForeArm
            {
              OFFSET 28.6126 1.18197 -3.53199
              CHANNELS 3 Zrotation Xrotation Yrotation
              JOINT LeftHand
              {
                OFFSET 27.5088 0.0218783 0.327423
                CHANNELS 3 Zrotation Xrotation Yrotation
                End Site
                {
                  OFFSET 18.6038 -0.000155887 0.382096
                }
              }
            }
          }
        }
        JOINT RightShoulder
        {
          OFFSET 17.1009 2.89543 -12.2328
          CHANNELS 3 Zrotation Xrotation Yrotation
          JOINT RightArm
          {
            OFFSET 1.4228 0.178766 -10.211
            CHANNELS 3 Zrotation Xrotation Yrotation
            JOINT RightForeArm
            {
              OFFSET 28.733 1.87905 2.64907
              CHANNELS 3 Zrotation Xrotation Yrotation
              JOINT RightHand
              {
                OFFSET 27.4588 0.290562 -0.101845
                CHANNELS 3 Zrotation Xrotation Yrotation
                End Site
                {
                  OFFSET 17.8396 -0.255518 -0.000602873
                }
              }
            }
          }
        }
      }
    }
  }
  JOINT LeftUpLeg
  {
    OFFSET -5.61296 -2.22332 -10.2353
    CHANNELS 3 Zrotation Xrotation Yrotation
    JOINT LeftLeg
    {
      OFFSET 2.56703 -44.7417 -7.93097
      CHANNELS 3 Zrotation Xrotation Yrotation
      JOINT LeftFoot
      {
        OFFSET 3.16933 -46.5642 -3.96578
        CHANNELS 3 Zrotation Xrotation Yrotation
        JOINT LeftToeBase
        {
          OFFSET 0.346054 -6.02161 12.8035
          CHANNELS 3 Zrotation Xrotation Yrotation
          End Site
          {
            OFFSET 0.134235 -1.35082 5.13018
          }
        }
      }
    }
  }
  JOINT RightUpLeg
  {
    OFFSET -5.7928 -1.72406 10.6446
    CHANNELS 3 Zrotation Xrotation Yrotation
    JOINT RightLeg
    {
      OFFSET -2.57161 -44.7178 -7.85259
      CHANNELS 3 Zrotation Xrotation Yrotation
      JOINT RightFoot
      {
        OFFSET -3.10148 -46.5936 -4.03391
        CHANNELS 3 Zrotation Xrotation Yrotation
        JOINT RightToeBase
        {
          OFFSET -0.0828122 -6.13587 12.8035
          CHANNELS 3 Zrotation Xrotation Yrotation
          End Site
          {
            OFFSET -0.131328 -1.35082 5.13018
          }
        }
      }
    }
  }
}
MOTION
Frames: 21
Frame Time: 0.03333333333333333
0.0000 93.1000 0.0000 68.2903 -31.2667 -10.3897 -71.0101 -0.1755 87.9999 88.1004 72.9620 -7.3663 0.3175 21.2429 4.5386 -128.2411 29.3347 165.0633 178.3339 69.9550 -145.3193 -0.3995 -15.8019 -28.0901 -79.8463 25.4651 -142.6129 17.0168 -2.5020 -97.2499 0.1805 -0.2972 -0.1298 -2.0026 6.0355 38.9308 -135.8959 -0.6774 95.9967 14.7226 -4.0044 76.9226 0.2997 0.2947 0.0315 -46.1152 12.9383 99.5722 -4.0220 48.2907 -10.4007 2.0501 -15.1542 -2.4089 4.0554 -12.5020 14.1392 -40.0006 -17.0558 76.3358 0.9642 37.2408 -2.0600 -5.9587 2.0821 0.1651 0.4326 -12.6985 -3.8027 
0.0000 93.1000 0.0000 67.9666 -31.1662 -10.3943 -71.0215 -3.1339 88.0035 88.1509 72.6204 -6.5433 -1.5837 21.1147 3.1588 -128.3200 29.2501 166.3446 178.0771 70.1267 -146.4484 -1.4132 -16.2268 -28.8308 -80.4964 25.2592 -140.6121 16.8878 -2.9965 -98.4113 -0.2321 -2.6773 1.1280 -2.9907 6.0511 38.9723 -137.2536 -0.8889 96.1122 15.3422 -3.3328 79.9865 2.0652 2.6506 1.8573 -46.2354 11.9548 99.3316 -4.9093 48.4380 -9.9867 1.0613 -15.0681 -0.5199 3.5902 -12.7301 13.9074 -39.8405 -16.8358 75.9473 1.0191 36.7064 -1.0533 -6.7038 1.2020 -1.2814 1.3421 -13.7828 -3.1978 
0.0000 93.1000 0.0000 67.9109 -30.2741 -10.3123 -71.0106 0.4609 88.0079 89.2803 72.2783 -6.3925 -0.0355 20.6859 3.4694 -128.2046 29.5543 166.1629 -180.4971 70.5161 -147.6703 -0.9093 -15.8754 -29.7055 -79.8432 25.8623 -139.7405 17.0923 -3.7389 -99.0829 -0.3408 0.4370 -0.3815 -2.1061 5.7380 38.6156 -137.7589 -1.5260 96.0370 15.5222 -1.9695 82.5440 -0.3436 -0.5969 -0.4664 -44.6759 13.0964 98.9854 -5.7667 48.1181 -11.2070 0.8839 -15.2511 -2.0904 4.0512 -12.8385 13.7403 -40.8434 -16.7126 75.1571 0.8980 37.3532 -0.9209 -6.0072 -0.0510 0.0965 0.9381 -12.7421 -3.8986 
0.0000 93.1000 0.0000 68.0492 -29.4025 -10.1207 -71.0130 0.0297 88.0064 89.2638 72.1710 -7.1659 -0.8378 21.0296 3.3966 -127.5825 29.9351 165.8220 -178.2266 71.1069 -150.1799 -1.5636 -15.9263 -29.9741 -80.1918 26.1333 -138.5680 17.1287 -4.3516 -100.1592 -0.3637 0.2373 -0.1672 -2.5273 5.9421 39.6058 -138.0139 0.1048 95.8894 16.8927 -1.9788 84.1713 -0.0747 -0.4249 -0.5090 -43.7564 13.6580 99.1414 -5.4314 49.4347 -10.6161 -0.1066 -15.4573 -1.4819 4.4017 -12.2574 13.5971 -40.6862 -17.4876 73.6886 0.7407 37.2418 -1.0701 -5.8186 -1.7599 -0.0676 0.1290 -10.0870 -1.7441 
0.0000 93.1000 0.0000 67.9375 -28.9349 -8.8157 -71.0134 -0.1417 88.0065 91.0816 71.9641 -8.6423 -0.8925 20.8311 3.9740 -127.4830 30.0965 165.5775 -177.1963 71.2783 -150.7925 -0.5001 -15.6384 -30.3054 -80.2988 27.0939 -136.7120 16.9164 -4.4402 -101.1129 0.0540 -0.0356 -0.1521 -1.9956 6.1364 39.9539 -138.1652 0.7425 96.0094 16.5341 -1.8721 84.9330 0.0213 -0.0512 -0.0779 -43.0542 15.1200 98.6305 -5.1644 51.5105 -12.5951 -1.1083 -14.0669 -1.8005 5.3841 -13.9366 16.2180 -41.0599 -17.3450 71.9074 1.1212 36.9754 -1.8769 -6.3324 -3.0827 0.1493 0.9417 -9.0581 -2.8380 
0.0000 93.1000 0.0000 67.8662 -28.0422 -8.8884 -71.0133 -0.1688 88.0067 94.1986 71.7810 -11.3025 -1.2022 20.4093 5.0403 -126.5367 29.9611 164.6059 -176.1644 71.9722 -151.4599 0.1389 -15.8827 -30.2630 -79.2307 27.1591 -135.7515 16.8062 -4.2106 -101.4487 0.3316 -0.1497 -0.1540 -1.6131 5.9845 39.9806 -138.8512 0.9891 96.0249 16.1824 -1.8064 85.0326 -0.0788 0.0619 0.1186 -40.1424 16.7632 98.1463 -6.4166 54.4437 -13.9222 -2.1520 -13.5077 -2.0512 6.4828 -16.4119 18.8454 -41.1033 -16.9538 71.3099 0.9301 37.9522 -0.9510 -6.1999 -3.6270 0.3620 1.0935 -8.8488 -2.0229 
0.0000 93.1000 0.0000 68.1204 -27.4364 -7.7732 -71.0175 -0.6874 88.0056 96.1016 71.3336 -13.1099 -1.8682 19.8611 5.8877 -125.3929 29.7486 163.5627 -173.1030 72.0835 -153.6404 0.0697 -15.9841 -30.1137 -79.1390 28.1843 -135.8029 17.2258 -4.1193 -101.3866 0.2415 -0.5708 0.0536 -1.7324 6.0958 40.0053 -138.8806 1.0691 97.1576 15.9229 -1.8096 84.9529 0.1729 0.5465 0.4785 -38.8158 17.9092 97.9996 -6.9313 56.3122 -15.1518 -2.5029 -13.3948 -1.8741 7.9172 -19.7635 20.6634 -40.9199 -17.1523 70.1413 0.9524 39.2610 -0.0860 -6.2861 -4.0749 0.1424 1.5226 -9.2728 -2.3854 
0.0000 93.1000 0.0000 67.7787 -27.9850 -7.9084 -71.0141 -0.2648 88.0056 95.9623 71.0494 -12.9674 -1.2736 19.2003 6.6442 -125.3368 29.2697 162.4760 -170.3493 71.9492 -156.1991 0.1686 -16.2412 -30.0670 -79.0273 28.1760 -135.7959 17.8876 -3.6851 -101.1548 0.3064 -0.1524 -0.2724 -1.6900 6.0317 41.1009 -139.0115 2.0105 97.8816 14.9431 -2.2119 82.9673 -0.0515 0.2291 0.1744 -37.8926 18.2717 97.2984 -7.1142 58.3373 -14.3366 -2.7276 -14.0129 -2.1376 8.2684 -19.1723 19.9614 -40.9720 -16.9291 69.1678 1.1652 39.8984 -0.3051 -5.9803 -4.7563 0.4175 1.7364 -9.0787 -4.2490 
0.0000 93.1000 0.0000 69.4099 -28.0497 -6.8270 -71.0153 -0.4358 88.0058 96.0711 71.2993 -12.3746 -1.3646 18.8866 7.2373 -124.3239 28.8839 160.1329 -169.4739 71.8206 -156.9919 -0.7937 -16.1533 -30.0978 -79.0135 28.6989 -135.8544 18.5976 -3.9218 -100.4433 -0.0970 -0.1808 -0.0513 -2.1554 5.8039 40.7469 -138.8587 1.7052 97.7730 14.8564 -2.8786 80.9457 0.1697 0.2536 0.0778 -39.0527 18.6860 96.9503 -6.9443 58.4140 -13.4271 -2.7507 -13.4538 -1.4211 7.5269 -19.2139 18.0507 -39.8556 -16.9164 69.9000 1.0607 41.1771 -0.2032 -5.6021 -5.1624 0.0001 1.3536 -9.4647 -3.9085 
0.0000 93.1000 0.0000 68.7597 -29.0495 -7.0695 -71.0122 0.0452 88.0066 94.9123 71.8934 -12.0206 -1.2450 19.0010 8.3833 -123.3153 28.7861 159.0572 -169.7089 72.0431 -157.3538 -0.5716 -16.3400 -30.1491 -78.0648 29.0339 -135.7916 19.3663 -4.1031 -100.3908 0.0419 0.1745 -0.2598 -2.0011 5.8583 40.8394 -137.9405 1.2513 98.8276 14.2079 -2.9178 79.7610 -0.0888 -0.1522 -0.1700 -40.1131 18.0575 97.0714 -6.7767 57.4644 -13.0662 -2.2473 -14.3774 -1.8718 7.1073 -17.0418 15.4804 -39.1635 -17.2388 71.0209 2.1196 42.0248 -0.2053 -5.1942 -4.8943 0.2552 1.4306 -9.9756 -4.7674 
0.0000 93.1000 0.0000 69.1398 -30.1753 -7.1590 -71.0120 0.1727 88.0064 93.9450 71.8685 -11.4291 -0.8814 19.1234 8.6723 -122.4015 28.3519 157.9879 -169.6363 72.1234 -157.1854 -0.7009 -16.5770 -30.1932 -78.0745 29.1756 -135.8101 19.1086 -4.1610 -99.3492 0.1322 0.2251 -0.0550 -2.1091 5.6551 41.3092 -137.9569 1.0709 98.9742 14.4969 -2.9517 78.9759 -0.0226 -0.1946 -0.1278 -41.0450 18.1100 97.1310 -6.7814 58.2637 -10.9672 -1.0384 -16.6322 -1.9533 5.9244 -14.4558 14.9725 -39.2107 -17.0507 72.0288 2.0326 43.3023 -0.1761 -4.8828 -4.9967 0.0585 0.9871 -9.2080 -5.3170 
0.0000 93.1000 0.0000 70.0981 -29.9636 -6.8738 -71.0121 0.2910 88.0050 92.9320 71.8275 -11.1341 -0.2505 19.3301 8.6568 -122.3797 28.0158 155.8298 -167.5487 72.7925 -160.3011 -0.4255 -16.4973 -29.8154 -77.1482 29.2052 -136.8284 18.8098 -3.8558 -98.3488 -0.1279 0.2578 -0.0804 -1.8985 5.1108 42.1437 -138.9680 0.7423 97.7650 14.3255 -3.1062 78.9288 0.0620 -0.2346 0.0053 -41.0584 17.0595 97.9354 -6.9916 58.2518 -9.9682 0.1573 -18.4123 -2.3108 4.7287 -13.4310 14.9531 -38.9237 -17.0065 72.8907 1.9944 43.9550 -0.9037 -4.6293 -5.5339 0.0339 1.0557 -9.0875 -5.0672 
0.0000 93.1000 0.0000 70.9642 -30.9643 -6.9748 -71.0143 0.1248 88.0031 94.0380 72.0484 -11.7989 -0.1880 19.8421 8.3427 -121.3197 27.6558 153.9078 -165.5518 72.7570 -161.2215 -0.5889 -16.6879 -29.1549 -76.9491 29.0428 -136.8462 18.0673 -3.2034 -98.2133 -0.0489 0.1279 0.0444 -2.0472 5.1011 42.7233 -138.8411 0.7894 97.6815 14.0165 -3.0595 79.8030 0.1179 -0.1330 0.0496 -41.8108 16.7630 98.1799 -6.2061 58.5018 -9.1939 0.7821 -20.1788 -2.2088 4.1704 -12.1472 15.0343 -38.7535 -17.2879 73.9267 2.2146 45.1650 0.1834 -4.7025 -6.0065 -0.0143 0.6658 -9.9741 -7.0364 
0.0000 93.1000 0.0000 71.0829 -31.2096 -7.0282 -71.0146 0.2467 88.0035 92.9434 71.9946 -10.9840 0.4429 20.1147 8.2207 -122.4180 28.0457 154.3510 -167.3905 72.8751 -160.0553 -0.4837 -16.5767 -29.1276 -77.1677 28.1091 -135.8988 17.7709 -3.0709 -98.4096 0.0157 0.1789 0.0833 -2.0469 5.2504 42.9246 -138.0872 0.9132 96.8000 13.7045 -2.9227 80.7142 -0.0643 -0.1966 -0.0286 -42.2944 17.1489 98.0711 -7.1118 59.4303 -8.8487 1.2840 -21.2927 -2.3180 4.0932 -11.7637 15.7047 -37.9331 -17.8002 74.0733 1.9560 45.9701 0.0252 -4.1977 -6.5272 -0.0869 0.6007 -9.9811 -6.8531 
0.0000 93.1000 0.0000 71.0894 -30.9478 -5.9304 -71.0155 0.1282 88.0032 92.9758 71.9739 -11.4176 0.1101 20.0181 7.7381 -123.3370 28.4064 156.3875 -169.3586 72.8604 -157.0936 -0.4998 -16.0900 -29.2152 -77.0627 28.2391 -135.6318 17.2204 -3.1591 -98.2716 0.0955 0.1452 0.1145 -2.0949 5.3307 43.1288 -137.9214 1.7209 94.7562 14.3243 -2.8110 81.7541 -0.0596 -0.0782 0.0178 -42.0750 16.9234 97.0642 -7.2012 60.1094 -9.0922 1.7225 -21.3736 -2.2774 4.1206 -12.7636 17.2546 -39.0028 -17.7539 74.1203 1.8442 46.0626 0.7513 -4.5816 -6.0501 -0.1215 0.7952 -10.1476 -7.3411 
0.0000 93.1000 0.0000 72.2049 -31.1759 -5.9068 -71.0133 0.1340 88.0017 94.8704 72.0790 -12.2162 -0.3261 20.1652 7.8929 -124.3424 28.8038 160.4382 -175.6184 73.1806 -151.3427 -0.2289 -16.0044 -29.8378 -77.7779 28.0596 -134.9431 17.6641 -3.2268 -98.3476 -0.0343 0.1072 0.1949 -1.9328 5.4947 43.2082 -137.8412 2.1169 93.7507 14.1030 -2.3015 82.0182 -0.1595 -0.0217 0.0325 -42.1568 16.9891 97.0974 -7.0363 60.3766 -8.9478 2.0472 -21.4937 -2.3040 3.9350 -12.9203 17.9316 -38.9401 -18.0166 73.9637 1.9226 46.1206 1.1544 -4.9216 -5.7853 -0.0406 1.0547 -11.0701 -5.8220 
0.0000 93.1000 0.0000 72.1879 -31.9433 -5.8976 -71.0114 0.3270 87.9995 94.8540 72.1212 -12.1644 -0.4991 20.1158 7.0750 -124.4474 29.6164 161.3568 -174.5506 73.0347 -152.4082 -0.4527 -16.0890 -30.1880 -78.1139 29.1032 -133.6913 17.2586 -3.0510 -99.2894 -0.1860 0.3460 0.1191 -2.0881 5.3030 43.0122 -136.9743 1.6524 93.8076 13.6804 -2.0794 81.8730 -0.2794 -0.3131 -0.1942 -42.9642 16.9063 97.8696 -7.2300 60.4338 -7.8617 1.6782 -21.8894 -2.0544 3.3756 -12.2444 17.2502 -38.9935 -18.1084 73.7357 2.0057 45.9622 1.8410 -4.1195 -4.6579 -0.1725 1.1676 -10.8282 -7.2958 
0.0000 93.1000 0.0000 71.9954 -32.2507 -6.2839 -71.0065 0.0543 87.9998 95.9561 71.9449 -11.8369 -0.6809 20.1914 6.9707 -125.3892 29.7080 162.3565 -174.2616 72.2641 -153.4283 -0.3602 -16.1826 -29.9861 -78.1262 29.9479 -133.5665 17.3165 -3.7000 -99.5261 -0.0747 0.1262 0.1797 -2.1179 5.5290 42.8156 -136.9694 0.9497 93.8800 13.1630 -2.5972 80.7157 -0.1644 -0.1186 -0.0624 -43.0674 16.9915 98.0714 -7.1950 60.3749 -6.7307 1.3194 -22.8250 -1.9820 3.2874 -11.1159 15.3946 -38.9805 -18.1417 73.3715 1.8927 46.0839 1.9533 -4.3850 -5.0491 -0.0157 0.8904 -11.0360 -5.4297 
0.0000 93.1000 0.0000 72.1256 -33.0153 -6.2003 -71.0030 0.3191 87.9998 95.8008 72.0221 -12.4005 -0.6507 19.9548 7.9109 -126.3912 29.7312 163.4801 -173.4460 72.1528 -154.5201 0.0042 -15.8792 -30.0014 -77.0998 30.1044 -132.6072 17.7579 -3.9758 -99.3231 0.0961 0.2791 -0.0149 -1.9107 5.6907 43.0945 -136.8532 0.9143 94.7862 13.1162 -3.0437 79.8765 -0.2948 -0.2841 -0.2722 -43.2143 17.9164 98.0548 -7.0665 60.3399 -6.7533 1.9734 -22.3640 -2.2957 3.3290 -12.7463 15.7746 -39.8887 -18.0146 72.8229 1.7993 45.8897 1.9383 -3.6199 -5.0421 0.2074 0.9244 -10.9611 -5.1786 
0.0000 93.1000 0.0000 72.0920 -33.0456 -6.2159 -71.0054 0.0626 87.9978 95.8684 71.9866 -13.0129 -0.8084 20.0575 7.7697 -126.4243 29.2655 162.3082 -170.6004 71.8594 -157.3868 -0.1146 -15.9020 -30.1238 -77.0460 30.1004 -132.6091 18.0710 -4.3048 -99.3003 -0.0677 0.0691 0.1401 -2.0107 5.4640 43.0844 -136.9956 1.5372 94.9052 12.8769 -2.9832 80.9581 -0.0869 -0.0212 -0.1630 -42.9934 17.9162 98.0864 -7.2102 61.3107 -6.9846 1.6820 -21.3904 -2.0185 3.7285 -13.8870 17.0661 -39.9711 -18.2418 72.8679 1.8791 46.2108 1.7566 -3.9596 -5.9052 0.0426 0.7706 -10.9692 -5.0001 
0.0000 93.1000 0.0000 72.0954 -33.1059 -6.1683 -71.0054 0.0433 87.9986 95.8128 71.9995 -13.0772 -0.9553 20.1417 8.0111 -125.4390 29.1374 161.2714 -168.3201 71.8894 -158.0611 0.0850 -15.9854 -30.0972 -77.0892 30.1984 -132.5818 18.1038 -4.2003 -100.2506 -0.1500 -0.0187 0.1034 -1.9060 5.6260 43.0237 -136.8521 1.0142 94.9124 13.1305 -2.0544 81.7340 -0.1127 0.0767 -0.0914 -43.0558 18.1382 97.9837 -7.1245 61.2760 -6.9314 1.9217 -21.1826 -2.0689 4.0543 -12.9956 16.9141 -39.0658 -17.9211 73.9593 1.8477 46.9386 1.7272 -4.2189 -5.7433 -0.0483 1.2489 -9.9888 -3.9144 
